<?xml version="1.0" standalone="no"?>
<!DOCTYPE svg PUBLIC "-//W3C//DTD SVG 20010904//EN"
 "http://www.w3.org/TR/2001/REC-SVG-20010904/DTD/svg10.dtd">
<svg version="1.0" xmlns="http://www.w3.org/2000/svg"
 width="256.000000pt" height="256.000000pt" viewBox="0 0 256.000000 256.000000"
 preserveAspectRatio="xMidYMid meet">
<metadata>
Created by potrace 1.14, written by Peter Selinger 2001-2017
</metadata>
<g transform="translate(0.000000,256.000000) scale(0.100000,-0.100000)"
fill="#000000" stroke="none">
<path d="M125 1283 l0 -1278 310 0 310 0 0 385 -1 385 77 80 c42 44 108 113
146 153 l68 73 130 -228 c71 -125 141 -249 155 -274 14 -25 93 -166 175 -312
l150 -266 393 -1 c215 0 392 2 392 5 0 2 -104 170 -231 372 -128 202 -293 465
-367 583 -74 118 -176 280 -227 360 -50 80 -101 161 -113 181 l-22 36 37 41
c21 22 90 95 153 162 63 68 122 131 132 142 9 10 74 80 145 155 70 75 133 141
138 147 6 6 69 74 140 151 72 77 147 158 167 180 l37 40 -417 3 -417 2 -19
-22 c-10 -13 -50 -59 -90 -102 -39 -43 -79 -88 -89 -100 -10 -12 -40 -46 -67
-76 -27 -30 -57 -64 -67 -76 -30 -34 -146 -165 -173 -194 -14 -15 -52 -58 -85
-96 -85 -97 -134 -152 -180 -202 -22 -24 -44 -50 -48 -58 -5 -8 -11 -12 -15
-10 -4 2 -7 214 -7 470 l0 466 -310 0 -310 0 0 -1277z m470 535 c0 -324 3
-588 6 -588 3 0 35 33 70 73 34 39 70 79 78 88 9 9 43 47 76 84 33 38 65 73
70 79 6 6 44 49 85 96 41 47 89 101 106 120 17 19 91 103 164 185 73 83 149
168 169 190 38 42 158 177 206 233 l28 32 209 0 c114 0 208 -3 208 -8 0 -4 -8
-15 -17 -23 -10 -9 -72 -74 -138 -145 -66 -71 -149 -160 -185 -199 -36 -38
-69 -74 -75 -81 -5 -6 -44 -47 -85 -90 -186 -197 -285 -307 -282 -316 1 -5
190 -307 419 -671 229 -364 425 -677 436 -694 l19 -33 -214 0 -213 0 -145 256
c-80 141 -157 277 -171 303 -14 25 -99 176 -189 335 l-164 289 -69 -74 c-112
-121 -225 -238 -316 -332 l-86 -87 -1 -338 c-1 -185 -2 -340 -3 -344 0 -5 -72
-8 -159 -8 l-157 0 0 1130 0 1130 160 -2 160 -3 0 -587z"/>
</g>
</svg>
